<svg width="56" height="56" viewBox="0 0 56 56" fill="none" xmlns="http://www.w3.org/2000/svg">
<circle cx="28" cy="28" r="22" fill="#FEB800" stroke="#FCFBF8" stroke-width="4"/>
<g clip-path="url(#clip0_2423_107858)">
<path d="M32.172 27L26.808 21.636L28.222 20.222L36 28L28.222 35.778L26.808 34.364L32.172 29H20V27H32.172Z" fill="#191B1B"/>
</g>
<path opacity="0.12" d="M56 28C56 43.464 43.464 56 28 56C12.536 56 0 43.464 0 28C0 12.536 12.536 0 28 0C43.464 0 56 12.536 56 28ZM4.23212 28C4.23212 41.1266 14.8734 51.7679 28 51.7679C41.1266 51.7679 51.7679 41.1266 51.7679 28C51.7679 14.8734 41.1266 4.23212 28 4.23212C14.8734 4.23212 4.23212 14.8734 4.23212 28Z" fill="#FEB800"/>
<path d="M56 28C56 43.464 43.464 56 28 56C12.536 56 0 43.464 0 28C0 12.536 12.536 0 28 0C43.464 0 56 12.536 56 28ZM4.23212 28C4.23212 41.1266 14.8734 51.7679 28 51.7679C41.1266 51.7679 51.7679 41.1266 51.7679 28C51.7679 14.8734 41.1266 4.23212 28 4.23212C14.8734 4.23212 4.23212 14.8734 4.23212 28Z" fill="#FEB800"/>
<defs>
<clipPath id="clip0_2423_107858">
<rect width="24" height="24" fill="white" transform="translate(16 16)"/>
</clipPath>
</defs>
</svg>
