<svg width="56" height="56" viewBox="0 0 56 56" fill="none" xmlns="http://www.w3.org/2000/svg">
<circle cx="28" cy="28" r="22" fill="#FEB800" stroke="#FCFBF8" stroke-width="4"/>
<g clip-path="url(#clip0_2423_108438)">
<path d="M33.5627 26.6667L26.4107 19.5147L28.296 17.6293L38.6667 28L28.296 38.3707L26.4107 36.4853L33.5627 29.3333H17.3334V26.6667H33.5627Z" fill="#191B1B"/>
</g>
<path opacity="0.12" d="M56 28C56 43.464 43.464 56 28 56C12.536 56 0 43.464 0 28C0 12.536 12.536 0 28 0C43.464 0 56 12.536 56 28ZM4.23212 28C4.23212 41.1266 14.8734 51.7679 28 51.7679C41.1266 51.7679 51.7679 41.1266 51.7679 28C51.7679 14.8734 41.1266 4.23212 28 4.23212C14.8734 4.23212 4.23212 14.8734 4.23212 28Z" fill="#FEB800"/>
<path d="M23.4209 2.52432C23.2142 1.37409 23.9789 0.265609 25.1414 0.146296C28.7712 -0.226227 32.446 0.113679 35.9574 1.15451C40.1464 2.3962 43.9867 4.60099 47.1712 7.59251C50.3556 10.584 52.7958 14.2793 54.2965 18.3827C55.7972 22.486 56.3168 26.8837 55.8138 31.2238C55.3107 35.564 53.799 39.7262 51.3994 43.3775C48.9999 47.0288 45.7792 50.0679 41.9949 52.2517C38.2106 54.4355 33.9677 55.7034 29.6057 55.9539C25.9493 56.164 22.2942 55.6543 18.8459 54.4613C17.7415 54.0793 17.2506 52.8253 17.715 51.7528C18.1793 50.6804 19.423 50.1971 20.5325 50.5643C23.3703 51.5035 26.3661 51.9009 29.363 51.7288C33.0657 51.5161 36.6673 50.4398 39.8796 48.5861C43.0919 46.7324 45.8258 44.1526 47.8627 41.0532C49.8995 37.9538 51.1828 34.4207 51.6098 30.7365C52.0368 27.0524 51.5958 23.3195 50.3219 19.8363C49.048 16.3531 46.9766 13.2164 44.2735 10.677C41.5704 8.13768 38.3105 6.26615 34.7546 5.21213C31.8766 4.35904 28.8693 4.06066 25.8919 4.3258C24.7278 4.42945 23.6276 3.67456 23.4209 2.52432Z" fill="#FEB800"/>
<defs>
<clipPath id="clip0_2423_108438">
<rect width="32" height="32" fill="white" transform="translate(12 12)"/>
</clipPath>
</defs>
</svg>
