<svg width="56" height="56" viewBox="0 0 56 56" fill="none" xmlns="http://www.w3.org/2000/svg">
<circle cx="28" cy="28" r="22" fill="#FEB800" stroke="#FCFBF8" stroke-width="4"/>
<g clip-path="url(#clip0_2423_106095)">
<path d="M33.5627 26.6667L26.4107 19.5147L28.296 17.6293L38.6667 28L28.296 38.3707L26.4107 36.4853L33.5627 29.3333H17.3334V26.6667H33.5627Z" fill="#191B1B"/>
</g>
<path opacity="0.12" d="M56 28C56 43.464 43.464 56 28 56C12.536 56 0 43.464 0 28C0 12.536 12.536 0 28 0C43.464 0 56 12.536 56 28ZM4.23212 28C4.23212 41.1266 14.8734 51.7679 28 51.7679C41.1266 51.7679 51.7679 41.1266 51.7679 28C51.7679 14.8734 41.1266 4.23212 28 4.23212C14.8734 4.23212 4.23212 14.8734 4.23212 28Z" fill="#FEB800"/>
<path d="M23.4209 2.52432C23.2142 1.37409 23.9789 0.265604 25.1415 0.146289C29.3031 -0.280825 33.5172 0.229289 37.471 1.65042C42.0901 3.31069 46.1916 6.15603 49.3643 9.90119C52.537 13.6464 54.6695 18.1598 55.5479 22.9889C56.2999 27.1225 56.1104 31.3631 55.005 35.398C54.6962 36.5251 53.4771 37.0973 52.3765 36.7043C51.2759 36.3113 50.7121 35.102 51.0057 33.9708C51.8705 30.6387 52.0032 27.1498 51.3841 23.7463C50.6385 19.6471 48.8283 15.8159 46.1351 12.6368C43.442 9.45768 39.9604 7.04241 36.0395 5.63309C32.7841 4.46298 29.3208 4.02045 25.8919 4.32579C24.7278 4.42945 23.6276 3.67456 23.4209 2.52432Z" fill="#FEB800"/>
<defs>
<clipPath id="clip0_2423_106095">
<rect width="32" height="32" fill="white" transform="translate(12 12)"/>
</clipPath>
</defs>
</svg>
